<svg xmlns="http://www.w3.org/2000/svg" xmlns:xlink="http://www.w3.org/1999/xlink" style="display: none;">
  <symbol id="active-filter" viewBox="0 0 24 24">
    <path d="M10.041 17l-4.5-4.319 1.395-1.435 3.08 2.937 7.021-7.183 1.422 1.409-8.418 8.591zm-5.041-15c-1.654 0-3 1.346-3 3v14c0 1.654 1.346 3 3 3h14c1.654 0 3-1.346 3-3v-14c0-1.654-1.346-3-3-3h-14zm19 3v14c0 2.761-2.238 5-5 5h-14c-2.762 0-5-2.239-5-5v-14c0-2.761 2.238-5 5-5h14c2.762 0 5 2.239 5 5z"/>
  </symbol>
  <symbol id="back" viewBox="0 0 24 24">
    <path d="M12 2c5.514 0 10 4.486 10 10s-4.486 10-10 10-10-4.486-10-10 4.486-10 10-10zm0-2c-6.627 0-12 5.373-12 12s5.373 12 12 12 12-5.373 12-12-5.373-12-12-12zm3.222 18.917c5.666-5.905-.629-10.828-5.011-7.706l1.789 1.789h-6v-6l1.832 1.832c7.846-6.07 16.212 4.479 7.39 10.085z"/>
  </symbol>
  <symbol id="book" viewBox="0 0 24 24">
    <path d="M12 4.707c-2.938-1.83-7.416-2.567-12-2.707v17.714c3.937.12 7.795.681 10.667 1.995.846.388 1.817.388 2.667 0 2.872-1.314 6.729-1.875 10.666-1.995v-17.714c-4.584.14-9.062.877-12 2.707zm-10 13.104v-13.704c5.157.389 7.527 1.463 9 2.334v13.168c-1.525-.546-4.716-1.505-9-1.798zm20 0c-4.283.293-7.475 1.252-9 1.799v-13.171c1.453-.861 3.83-1.942 9-2.332v13.704z"/>
  </symbol>
  <symbol id="bookmark" viewBox="0 0 24 24">
    <path d="M17 6v13.583l-3-2.634-3 2.634v-13.583h6zm2-2h-10v20l5-4.39 5 4.39v-20zm-12-2h8v-2h-10v20l2-1.756v-16.244z"/>
  </symbol>
  <symbol id="cancel" viewBox="0 0 24 24">
    <path d="M24 21h-17l-7-7.972 7-8.028h17v16zm-16.09-14l-5.252 6.023 5.247 5.977h14.095v-12h-14.09zm6.09 4.586l2.586-2.586 1.414 1.414-2.586 2.586 2.586 2.586-1.414 1.414-2.586-2.586-2.586 2.586-1.414-1.414 2.586-2.586-2.586-2.586 1.414-1.414 2.586 2.586z"/>
  </symbol>
  <symbol id="chapter" viewBox="0 0 24 24">
    <path d="M13 6c3.469 0 2 5 2 5s5-1.594 5 2v9h-12v-16h5zm.827-2h-7.827v20h16v-11.842c0-2.392-5.011-8.158-8.173-8.158zm.173-2l-3-2h-9v22h2v-20h10z"/>
  </symbol>
  <symbol id="column-1" viewBox="0 0 24 24">
    <path d="M22 2v20h-20v-20h20zm2-2h-24v24h24v-24z"/>
  </symbol>
  <symbol id="column-2" viewBox="0 0 24 24">
    <path d="m11 2h2v20h-2zm11 0v20h-20v-20zm2-2h-24v24h24z"/>
  </symbol>
  <symbol id="column-3" viewBox="0 0 24 24">
    <path d="m14.666 2h2v20h-2zm-7.333 0h2v20h-2zm14.667 0v20h-20v-20zm2-2h-24v24h24z"/>
  </symbol>
  <symbol id="copy" viewBox="0 0 24 24">
    <path d="M18 6v-6h-18v18h6v6h18v-18h-6zm-12 10h-4v-14h14v4h-10v10zm16 6h-14v-14h14v14zm-3-8h-3v-3h-2v3h-3v2h3v3h2v-3h3v-2z"/>
  </symbol>
  <symbol id="delete" viewBox="0 0 24 24">
    <path d="M12 2c5.514 0 10 4.486 10 10s-4.486 10-10 10-10-4.486-10-10 4.486-10 10-10zm0-2c-6.627 0-12 5.373-12 12s5.373 12 12 12 12-5.373 12-12-5.373-12-12-12zm5 15.538l-3.592-3.548 3.546-3.587-1.416-1.403-3.545 3.589-3.588-3.543-1.405 1.405 3.593 3.552-3.547 3.592 1.405 1.405 3.555-3.596 3.591 3.55 1.403-1.416z"/>
  </symbol>
  <symbol id="down" viewBox="0 0 24 24">
    <path d="m22 12c0 5.514-4.486 10-10 10s-10-4.486-10-10 4.486-10 10-10 10 4.486 10 10zm2 0c0-6.627-5.373-12-12-12s-12 5.373-12 12 5.373 12 12 12 12-5.373 12-12zm-12 2-4.5-4.5-1.5 1.527 6 5.973 6-5.973-1.5-1.527z"/>
  </symbol>
  <symbol id="export" viewBox="0 0 24 24">
    <path d="M8 11h-6v10h20v-10h-6v-2h8v14h-24v-14h8v2zm-1-4l5-6 5 6h-4v11h-2v-11h-4z"/>
  </symbol>
  <symbol id="filter" viewBox="0 0 24 24">
    <path d="M1 0l9 15.094v5.906l4 3v-8.906l9-15.094h-22zm18.479 2l-2.981 5h-8.996l-2.981-5h14.958z"/>
  </symbol>
  <symbol id="folder" viewBox="0 0 24 24">
    <path d="M11 5c-1.629 0-2.305-1.058-4-3h-7v20h24v-17h-13zm11 15h-20v-16h4.084c1.379 1.612 2.576 3 4.916 3h4v9l2.5-2.634 2.5 2.634v-9h2v13z"/>
  </symbol>
  <symbol id="folder-add" viewBox="0 0 24 24">
    <path d="M7 2c1.695 1.942 2.371 3 4 3h13v17h-24v-20h7zm4 5c-2.339 0-3.537-1.388-4.917-3h-4.083v16h20v-13h-11zm2 6h3v2h-3v3h-2v-3h-3v-2h3v-3h2v3z"/>
  </symbol>
  <symbol id="help" viewBox="0 0 24 24">
    <path d="m20 6.0039q0 1.5484-0.66272 2.765-0.66272 1.2008-1.742 2.133-1.0604 0.90059-2.4426 1.6906-1.3822 0.78999-2.9349 1.5326v3.555h-3.3894v-4.819q1.2308-0.5846 2.6509-1.2798 1.4391-0.69519 2.3479-1.4062 1.0982-0.82159 1.7041-1.6906 0.60592-0.88479 0.60592-2.2436 0-1.7854-1.458-2.6544-1.4391-0.88479-3.7302-0.88479-2.045 0-3.8817 0.5372-1.8178 0.5372-2.8781 1.0902h-0.18935v-3.2232q1.3254-0.4266 3.3515-0.75839 2.045-0.3476 3.8627-0.3476 4.071 0 6.4189 1.659 2.3669 1.6432 2.3669 4.345zm-7.4793 17.996h-3.8627v-3.3338h3.8627z"/>
  </symbol>
  <symbol id="history" viewBox="0 0 24 24">
    <path d="M6 22v-16h16v7.543c0 4.107-6 2.457-6 2.457s1.518 6-2.638 6h-7.362zm18-7.614v-10.386h-20v20h10.189c3.163 0 9.811-7.223 9.811-9.614zm-3-12.386h-19v19h-2v-21h21v2z"/>
  </symbol>
  <symbol id="import" viewBox="0 0 24 24">
    <path d="M8 11h-6v10h20v-10h-6v-2h8v14h-24v-14h8v2zm5 2h4l-5 6-5-6h4v-12h2v12z"/>
  </symbol>
  <symbol id="menu" viewBox="0 0 24 24">
    <path d="M12 2c5.514 0 10 4.486 10 10s-4.486 10-10 10-10-4.486-10-10 4.486-10 10-10zm0-2c-6.627 0-12 5.373-12 12s5.373 12 12 12 12-5.373 12-12-5.373-12-12-12zm-4.5 14c-.828 0-1.5-.672-1.5-1.5s.672-1.5 1.5-1.5 1.5.672 1.5 1.5-.672 1.5-1.5 1.5zm4.5 0c-.828 0-1.5-.672-1.5-1.5s.672-1.5 1.5-1.5 1.5.672 1.5 1.5-.672 1.5-1.5 1.5zm4.5 0c-.828 0-1.5-.672-1.5-1.5s.672-1.5 1.5-1.5 1.5.672 1.5 1.5-.672 1.5-1.5 1.5z"/>
  </symbol>
  <symbol id="move" viewBox="0 0 24 24">
    <path d="M15.143 13.244l.837-2.244 2.698 5.641-5.678 2.502.805-2.23s-8.055-3.538-7.708-10.913c2.715 5.938 9.046 7.244 9.046 7.244zm8.857-7.244v18h-18v-6h-6v-18h18v6h6zm-2 2h-12.112c-.562-.578-1.08-1.243-1.521-2h7.633v-4h-14v14h4v-3.124c.6.961 1.287 1.823 2 2.576v6.548h14v-14z"/>
  </symbol>
  <symbol id="move-copy" viewBox="0 0 24 24">
    <path d="M18 6v-6h-18v18h6v6h18v-18h-6zm-12 10h-4v-14h14v4h-10v10zm16 6h-14v-14h14v14z"/>
  </symbol>
  <symbol id="next" viewBox="0 0 24 24">
    <path d="M12 2c5.514 0 10 4.486 10 10s-4.486 10-10 10-10-4.486-10-10 4.486-10 10-10zm0-2c-6.627 0-12 5.373-12 12s5.373 12 12 12 12-5.373 12-12-5.373-12-12-12zm2 12l-4.5 4.5 1.527 1.5 5.973-6-5.973-6-1.527 1.5 4.5 4.5z"/>
  </symbol>
  <symbol id="prev" viewBox="0 0 24 24">
    <path d="m12 22c-5.514 0-10-4.486-10-10s4.486-10 10-10 10 4.486 10 10-4.486 10-10 10zm0 2c6.627 0 12-5.373 12-12s-5.373-12-12-12-12 5.373-12 12 5.373 12 12 12zm-2-12 4.5-4.5-1.527-1.5-5.973 6 5.973 6 1.527-1.5z"/>
  </symbol>
  <symbol id="rename" viewBox="0 0 24 24">
    <path d="M12 2c5.514 0 10 4.486 10 10s-4.486 10-10 10-10-4.486-10-10 4.486-10 10-10zm0-2c-6.627 0-12 5.373-12 12s5.373 12 12 12 12-5.373 12-12-5.373-12-12-12zm-3.994 12.964l3.106 3.105-4.112.931 1.006-4.036zm9.994-3.764l-5.84 5.921-3.202-3.202 5.841-5.919 3.201 3.2z"/>
  </symbol>
  <symbol id="search" viewBox="0 0 24 24">
    <path d="M21.172 24l-7.387-7.387c-1.388.874-3.024 1.387-4.785 1.387-4.971 0-9-4.029-9-9s4.029-9 9-9 9 4.029 9 9c0 1.761-.514 3.398-1.387 4.785l7.387 7.387-2.828 2.828zm-12.172-8c3.859 0 7-3.14 7-7s-3.141-7-7-7-7 3.14-7 7 3.141 7 7 7z"/>
  </symbol>
  <symbol id="search-go" viewBox="0 0 24 24">
    <path d="M21.172 24l-7.387-7.387c-1.388.874-3.024 1.387-4.785 1.387-4.971 0-9-4.029-9-9s4.029-9 9-9 9 4.029 9 9c0 1.761-.514 3.398-1.387 4.785l7.387 7.387-2.828 2.828zm-12.172-8c3.859 0 7-3.14 7-7s-3.141-7-7-7-7 3.14-7 7 3.141 7 7 7zm-3-8c.552 0 1 .448 1 1s-.448 1-1 1-1-.448-1-1 .448-1 1-1zm3 0c.552 0 1 .448 1 1s-.448 1-1 1-1-.448-1-1 .448-1 1-1zm3 0c.552 0 1 .448 1 1s-.448 1-1 1-1-.448-1-1 .448-1 1-1z"/>
  </symbol>
  <symbol id="select-filter" viewBox="0 0 24 24">
    <path d="M5 2c-1.654 0-3 1.346-3 3v14c0 1.654 1.346 3 3 3h14c1.654 0 3-1.346 3-3v-14c0-1.654-1.346-3-3-3h-14zm19 3v14c0 2.761-2.238 5-5 5h-14c-2.762 0-5-2.239-5-5v-14c0-2.761 2.238-5 5-5h14c2.762 0 5 2.239 5 5z"/>
  </symbol>
  <symbol id="setting" viewBox="0 0 24 24">
    <path d="M24 14.187v-4.374c-2.148-.766-2.726-.802-3.027-1.529-.303-.729.083-1.169 1.059-3.223l-3.093-3.093c-2.026.963-2.488 1.364-3.224 1.059-.727-.302-.768-.889-1.527-3.027h-4.375c-.764 2.144-.8 2.725-1.529 3.027-.752.313-1.203-.1-3.223-1.059l-3.093 3.093c.977 2.055 1.362 2.493 1.059 3.224-.302.727-.881.764-3.027 1.528v4.375c2.139.76 2.725.8 3.027 1.528.304.734-.081 1.167-1.059 3.223l3.093 3.093c1.999-.95 2.47-1.373 3.223-1.059.728.302.764.88 1.529 3.027h4.374c.758-2.131.799-2.723 1.537-3.031.745-.308 1.186.099 3.215 1.062l3.093-3.093c-.975-2.05-1.362-2.492-1.059-3.223.3-.726.88-.763 3.027-1.528zm-4.875.764c-.577 1.394-.068 2.458.488 3.578l-1.084 1.084c-1.093-.543-2.161-1.076-3.573-.49-1.396.581-1.79 1.693-2.188 2.877h-1.534c-.398-1.185-.791-2.297-2.183-2.875-1.419-.588-2.507-.045-3.579.488l-1.083-1.084c.557-1.118 1.066-2.18.487-3.58-.579-1.391-1.691-1.784-2.876-2.182v-1.533c1.185-.398 2.297-.791 2.875-2.184.578-1.394.068-2.459-.488-3.579l1.084-1.084c1.082.538 2.162 1.077 3.58.488 1.392-.577 1.785-1.69 2.183-2.875h1.534c.398 1.185.792 2.297 2.184 2.875 1.419.588 2.506.045 3.579-.488l1.084 1.084c-.556 1.121-1.065 2.187-.488 3.58.577 1.391 1.689 1.784 2.875 2.183v1.534c-1.188.398-2.302.791-2.877 2.183zm-7.125-5.951c1.654 0 3 1.346 3 3s-1.346 3-3 3-3-1.346-3-3 1.346-3 3-3zm0-2c-2.762 0-5 2.238-5 5s2.238 5 5 5 5-2.238 5-5-2.238-5-5-5z"/>
  </symbol>
  <symbol id="sort-ascend" viewBox="0 0 24 24">
    <path d="M6 3l-6 8h4v10h4v-10h4l-6-8zm16 14h-8v-2h8v2zm2 2h-10v2h10v-2zm-4-8h-6v2h6v-2zm-2-4h-4v2h4v-2zm-2-4h-2v2h2v-2z"/>
  </symbol>
  <symbol id="sort-descend" viewBox="0 0 24 24">
    <path d="M6 21l6-8h-4v-10h-4v10h-4l6 8zm16-12h-8v-2h8v2zm2-6h-10v2h10v-2zm-4 8h-6v2h6v-2zm-2 4h-4v2h4v-2zm-2 4h-2v2h2v-2z"/>
  </symbol>
  <symbol id="sort-invert" viewBox="0 0 24 24">
    <path d="M8 10v4h4l-6 7-6-7h4v-4h-4l6-7 6 7h-4zm16 5h-10v2h10v-2zm0 6h-10v-2h10v2zm0-8h-10v-2h10v2zm0-4h-10v-2h10v2zm0-4h-10v-2h10v2z"/>
  </symbol>
  <symbol id="topic" viewBox="0 0 24 24">
    <path d="M12 2c5.514 0 10 4.486 10 10s-4.486 10-10 10-10-4.486-10-10 4.486-10 10-10zm0-2c-6.627 0-12 5.373-12 12s5.373 12 12 12 12-5.373 12-12-5.373-12-12-12zm6 17h-12v-2h12v2zm0-4h-12v-2h12v2zm0-4h-12v-2h12v2z"/>
  </symbol>
  <symbol id="up" viewBox="0 0 24 24">
    <path d="m2 12c0-5.514 4.486-10 10-10s10 4.486 10 10-4.486 10-10 10-10-4.486-10-10zm-2 0c0 6.627 5.373 12 12 12s12-5.373 12-12-5.373-12-12-12-12 5.373-12 12zm12-2 4.5 4.5 1.5-1.527-6-5.973-6 5.973 1.5 1.527z"/>
  </symbol>
</svg>
